<svg class="css-ze2te4 css-qd6ojx" viewBox="0 0 53.23156691470389 36.72492941159571" xmlns="http://www.w3.org/2000/svg"
  aria-labelledby="title" role="img">
  <title id="title">Asset 30 LETTERS 1</title>

  <g transform="translate(0 -0.01449615469201932) scale(0.7249294115957101)" fill="#ffffff">
    <path d="M47.59,0 C37.12,0 28.15,6.52 24.51,15.71 L0,15.71 L12.25,23.84 L65.3,23.84
         C65.32,24.17 65.33,24.5 65.33,24.83 C65.33,24.5 65.3,26.08 65.23,26.69
         L22.84,26.69 C23.05,29.56 23.76,32.3 24.87,34.82 C25.31,35.81 25.8,36.76
         26.35,37.68 C30.71,44.85 38.6,49.66 47.59,49.66 C56.58,49.66 64.47,44.86
         68.83,37.68 L59.81,37.68 C56.63,40.71 52.33,42.57 47.6,42.57
         C42.87,42.57 38.57,40.71 35.39,37.68 C34.48,36.82 33.66,35.86
         32.95,34.82 L70.32,34.82 C71.67,31.76 72.43,28.38 72.43,24.83
         C72.42,11.14 61.28,0 47.59,0 Z

         M32.38,15.71 C35.49,10.55 41.14,7.09 47.59,7.09
         C54.04,7.09 59.69,10.55 62.8,15.71 L32.38,15.71 Z"></path>
  </g>
</svg>
